<svg height='300px' width='300px'  fill="#000000" xmlns="http://www.w3.org/2000/svg" xmlns:xlink="http://www.w3.org/1999/xlink" version="1.1" x="0px" y="0px" viewBox="0 0 100 100" enable-background="new 0 0 100 100" xml:space="preserve"><g><path d="M90,86h-6v-3.5c0-0.828-0.672-1.5-1.5-1.5S81,81.672,81,82.5V86H64v-3.5c0-0.828-0.672-1.5-1.5-1.5S61,81.672,61,82.5V86   H44v-3.5c0-0.828-0.671-1.5-1.5-1.5S41,81.672,41,82.5V86H24v-3.5c0-0.828-0.671-1.5-1.5-1.5S21,81.672,21,82.5V86h-9.5V17.5   c0-0.829-0.671-1.5-1.5-1.5s-1.5,0.671-1.5,1.5v70c0,0.828,0.671,1.5,1.5,1.5h80c0.828,0,1.5-0.672,1.5-1.5S90.828,86,90,86z"></path><path d="M25.906,64.475C24.914,63.86,23.75,63.5,22.5,63.5c-3.584,0-6.5,2.916-6.5,6.5s2.916,6.5,6.5,6.5S29,73.584,29,70   c0-1.249-0.36-2.413-0.974-3.404l10.534-10.535c0.184-0.185,0.29-0.408,0.358-0.642c1.028,0.682,2.258,1.081,3.582,1.081   c1.552,0,2.977-0.548,4.096-1.459l9.619,8.33C56.079,63.893,56,64.437,56,65c0,3.584,2.916,6.5,6.5,6.5S69,68.584,69,65   c0-1.657-0.629-3.167-1.654-4.316l2.609-3.964l7.429,9.285C76.52,67.108,76,68.493,76,70c0,3.584,2.916,6.5,6.5,6.5   S89,73.584,89,70s-2.916-6.5-6.5-6.5c-0.994,0-1.933,0.23-2.775,0.631l-8.035-10.045l8.557-12.997   C80.949,41.35,81.707,41.5,82.5,41.5c3.584,0,6.5-2.916,6.5-6.5s-2.916-6.5-6.5-6.5S76,31.416,76,35   c0,1.709,0.668,3.262,1.751,4.423l-8.032,12.2l-2.103-2.628C68.48,47.892,69,46.507,69,45c0-3.584-2.916-6.5-6.5-6.5   c-1.404,0-2.702,0.452-3.766,1.212l-10.49-9.179C48.725,29.627,49,28.595,49,27.5c0-3.584-2.916-6.5-6.5-6.5S36,23.916,36,27.5   c0,0.727,0.125,1.424,0.347,2.078l-8.014,5.008c-0.521,0.326-0.927,0.581-1.257,0.803C25.899,34.222,24.283,33.5,22.5,33.5   c-3.584,0-6.5,2.916-6.5,6.5s2.916,6.5,6.5,6.5S29,43.584,29,40c0-0.727-0.125-1.424-0.346-2.077   c1.476-0.922,7.193-4.496,9.283-5.801C39.111,33.282,40.723,34,42.5,34c1.404,0,2.702-0.452,3.766-1.212l10.49,9.179   C56.275,42.873,56,43.904,56,45c0,3.584,2.916,6.5,6.5,6.5c0.993,0,1.932-0.23,2.774-0.631l2.71,3.388l-3.096,4.704   C64.147,58.667,63.344,58.5,62.5,58.5c-1.917,0-3.638,0.84-4.828,2.164l-9.246-8.007C48.792,51.845,49,50.947,49,50   c0-3.584-2.916-6.5-6.5-6.5S36,46.416,36,50c0,1.323,0.399,2.554,1.081,3.581c-0.233,0.068-0.458,0.174-0.642,0.358L25.906,64.475z   "></path></g></svg>