<svg height='300px' width='300px'  fill="#000000" xmlns="http://www.w3.org/2000/svg" xmlns:xlink="http://www.w3.org/1999/xlink" version="1.1" x="0px" y="0px" viewBox="0 0 100 100" enable-background="new 0 0 100 100" xml:space="preserve"><path d="M91.855,76.625H8.145c-1.104,0-2,0.896-2,2s0.896,2,2,2h83.711c1.104,0,2-0.896,2-2S92.96,76.625,91.855,76.625z"></path><path d="M15.068,36.356c1.436,0,2.789-0.361,3.976-0.993l12.543,12.916c-1.076,1.423-1.722,3.187-1.722,5.104  c0,4.682,3.809,8.49,8.491,8.49c4.682,0,8.49-3.809,8.49-8.49c0-1.831-0.588-3.524-1.578-4.912l10.201-8.304  c1.55,1.645,3.741,2.679,6.175,2.679c2.564,0,4.862-1.147,6.42-2.951l8.692,4.733c-0.2,0.722-0.315,1.479-0.315,2.263  c0,4.682,3.809,8.491,8.49,8.491s8.49-3.809,8.49-8.491s-3.809-8.491-8.49-8.491c-2.46,0-4.673,1.058-6.225,2.736l-8.815-4.8  c0.153-0.637,0.243-1.297,0.243-1.98c0-4.682-3.809-8.491-8.49-8.491c-4.683,0-8.492,3.809-8.492,8.491  c0,0.791,0.117,1.553,0.32,2.279l-11.281,9.182c-1.154-0.587-2.454-0.925-3.835-0.925c-1.313,0-2.553,0.309-3.664,0.843  L22.037,32.703c0.957-1.374,1.522-3.04,1.522-4.838c0-4.682-3.809-8.491-8.491-8.491c-4.682,0-8.49,3.809-8.49,8.491  S10.387,36.356,15.068,36.356z M84.932,42.401c2.476,0,4.49,2.015,4.49,4.491c0,2.476-2.015,4.491-4.49,4.491  s-4.49-2.015-4.49-4.491C80.441,44.416,82.456,42.401,84.932,42.401z M61.645,29.865c2.476,0,4.49,2.015,4.49,4.491  s-2.015,4.49-4.49,4.49c-2.477,0-4.492-2.014-4.492-4.49S59.168,29.865,61.645,29.865z M42.847,53.383c0,2.476-2.014,4.49-4.49,4.49  c-2.477,0-4.491-2.015-4.491-4.49c0-2.477,2.015-4.491,4.491-4.491C40.833,48.892,42.847,50.906,42.847,53.383z M15.068,23.375  c2.477,0,4.491,2.015,4.491,4.491s-2.015,4.491-4.491,4.491c-2.476,0-4.49-2.015-4.49-4.491S12.592,23.375,15.068,23.375z"></path></svg>